<?xml version="1.0" encoding="utf-8"?>
<!-- Generator: Adobe Illustrator 27.4.0, SVG Export Plug-In . SVG Version: 6.00 Build 0)  -->
<svg version="1.1" id="Calque_1" xmlns="http://www.w3.org/2000/svg" xmlns:xlink="http://www.w3.org/1999/xlink" x="0px" y="0px"
	 viewBox="0 0 700 700" style="enable-background:new 0 0 700 700;" xml:space="preserve">
<g>
	<path d="M170.1,444c18.4,12.5,36.7,25,55.1,37.6c5.5,3.7,15.1,1.4,17.9-4.7c31.1-67.3,62.3-134.6,93.4-201.9c4.9,0.6,9.9,1,15.1,1
		c2.6,0,5.2-0.2,7.9-0.3v181.5h-56.9c-16.9,0-16.9,26.2,0,26.2h70c7.1,0,13.1-6,13.1-13.1v-199c34.8-9.7,60.8-33.8,66.2-63.2
		c13.6,2.4,27,7,37.8,14.4c50.4,34.8-7.8,107.9-32.9,138.9c-10.5,13,7.9,31.7,18.6,18.5c33.8-41.8,92-120.7,39.4-170.9
		c-16.5-15.7-40.2-24.2-63.5-27.6c-3.6-14.4-12.2-27.4-24.3-37.9c0.4-1,0.7-1.9,1.1-3c2-6.3,3.3-13.6,2.7-20.9
		c-0.5-7.3-3.2-14.5-6.8-19.8c-3.6-5.5-7.9-9.4-11.7-12.3c-3.8-3-7.2-4.8-9.5-6.2c-2.4-1.2-3.8-1.8-3.8-1.8
		c-5.6-2.8-8.8-3.1-9.2-2.3c-0.5,0.9,1.8,3,6.3,6.9c0,0,1.1,0.9,3,2.6c1.7,1.8,4.4,4.2,6.9,7.5c5.4,6.3,9.6,16.3,7.6,25.3
		c-0.7,4.1-2.5,8.1-4.7,11.8c-16.3-8.7-35.9-13.7-57-13.7c-21.2,0-40.8,5.1-57.1,13.7c-2.2-3.6-3.9-7.6-4.7-11.8
		c-1.9-9,2.2-18.9,7.6-25.3c2.5-3.3,5.2-5.7,6.9-7.5c1.9-1.6,3-2.6,3-2.6c4.5-3.8,6.8-5.9,6.3-6.9c-0.4-0.8-3.7-0.5-9.2,2.3
		c0,0-1.4,0.7-3.8,1.8c-2.3,1.5-5.8,3.3-9.6,6.2c-3.8,2.9-8.1,6.8-11.7,12.3c-3.6,5.4-6.3,12.5-6.8,19.8c-0.6,7.3,0.7,14.6,2.7,20.9
		c0.4,1.1,0.7,2,1.1,3c-16.2,14.1-26.2,32.7-26.2,53.1c0,1.8,0.2,3.6,0.4,5.4c-17.6,9.6-33.7,22.6-46.2,37.9
		c-31.6,39.2-28,86.5-5.7,129.5c7.8,15,30.4,1.7,22.6-13.3c-19.3-37.2-20.1-76.2,10.2-107.4c8-8.1,17.1-15,26.9-20.9
		c10.1,18.4,28.8,33.2,52.1,41.3c-28,60.5-56,121.1-84,181.7c-14.4-9.8-28.8-19.6-43.1-29.4C169.3,411.8,156.2,434.5,170.1,444
		L170.1,444z M290.4,176.3c0-16.9,13.7-30.6,30.6-30.6s30.6,13.7,30.6,30.6s-13.7,30.6-30.6,30.6
		C304.1,206.9,290.4,193.2,290.4,176.3z"/>
	<path d="M311.6,163.5c-5.1,0-9.4,4.2-9.4,9.4c0,5.2,4.2,9.4,9.4,9.4c5.2,0,9.4-4.2,9.4-9.4C321,167.7,316.8,163.5,311.6,163.5z"/>
</g>
</svg>
