<?xml version="1.0" encoding="utf-8"?>
<!-- Generator: Adobe Illustrator 27.4.0, SVG Export Plug-In . SVG Version: 6.00 Build 0)  -->
<svg version="1.1" id="Calque_1" xmlns="http://www.w3.org/2000/svg" xmlns:xlink="http://www.w3.org/1999/xlink" x="0px" y="0px"
	 viewBox="0 0 700 700" style="enable-background:new 0 0 700 700;" xml:space="preserve">
<g>
	<path d="M571.2,162.4l-2.2-1.7v-6.2l-28.6-28v-6.2l-73.9-34.2h-35.3c-9,0-16.8,5.6-20.7,13.4l-14,32.5l-20.7-12.9l2.8-14h-3.4
		l6.2-31.4l-9-23.5v-5.6c0-4.5-3.9-7.8-8.4-7.8h-1.1l-9.5-9c-1.7-1.7-3.9-1.7-5.6,0l-9,9h-1.1c-4.5,0-8.4,3.4-8.4,7.8v5.6l-9,23.5
		l6.2,31.4h-3.4l2.2,14L303,130.5l-13.4-30.8c-3.4-8.4-11.8-13.4-20.7-13.4h-35.3l-73.9,34.2v6.2l-28.6,28v6.2l-2.2,1.7
		c-12.3,10.6-19,26.9-17.9,43.1v0.6c0,1.7,1.1,2.8,2.8,2.8h33.6l37.5-23.5h13.4l12.3-12.3H243l7.8,0.6l-24.1,44.2l-14,76.7l13.4,89
		l23.5,25.2l-14,65.5c-3.4,16.2-1.1,33,6.7,47.6l6.7,11.8l28.6-8.4v-12.9l15.7-15.7v-43.1l-2.8-3.4l23,17.4h16.2l16.8,54.3
		c1.1,3.9,7.3,3.9,8.4,0l16.8-54.3h16.2l23-17.4l-2.8,2.8v43.1l15.7,15.7v12.9l28.6,8.4l6.7-11.8c7.8-14.6,10.6-31.4,6.7-47.6
		l-14-65.5l23.5-25.2l13.4-89l-14-76.7l-28-49.3l-2.8-2.2l12.9,6.7h32.5l12.3,12.3h13.4l37.5,23.5h33.6c1.7,0,2.8-1.1,2.8-2.8V205
		C590.2,189.3,583.5,173,571.2,162.4L571.2,162.4z"/>
</g>
</svg>
