<?xml version="1.0" encoding="utf-8"?>
<!-- Generator: Adobe Illustrator 27.4.0, SVG Export Plug-In . SVG Version: 6.00 Build 0)  -->
<svg version="1.1" id="Calque_1" xmlns="http://www.w3.org/2000/svg" xmlns:xlink="http://www.w3.org/1999/xlink" x="0px" y="0px"
	 viewBox="0 0 700 700" style="enable-background:new 0 0 700 700;" xml:space="preserve">
<g>
	<path d="M541.8,76.3c-15.4,53.4-52.7,104.3-103.4,130c-2.9-3.4-6-6.6-9.4-9.6c0.4-1,0.8-2,1.1-3.1c2-6.4,3.4-13.8,2.7-21.4
		c-0.5-7.5-3.3-14.7-7-20.2c-3.6-5.6-8-9.6-11.9-12.6c-3.9-3.1-7.4-4.9-9.7-6.3c-2.5-1.2-3.9-1.9-3.9-1.9c-5.7-2.8-9-3.1-9.5-2.3
		c-0.5,1,1.9,3.1,6.4,7c0,0,1.1,1,3.1,2.6c1.8,1.9,4.5,4.3,7.1,7.7c5.5,6.5,9.7,16.6,7.8,25.8c-0.8,4.2-2.6,8.3-4.8,12
		c-16.6-8.8-36.6-14-58.2-14c-21.6,0-41.6,5.2-58.2,14c-2.2-3.7-4-7.8-4.8-12c-2-9.2,2.2-19.3,7.8-25.8c2.5-3.4,5.3-5.8,7.1-7.7
		c1.9-1.7,3.1-2.6,3.1-2.6c4.6-3.9,7-6,6.4-7c-0.4-0.8-3.7-0.5-9.4,2.3c0,0-1.4,0.7-3.9,1.9c-2.3,1.4-5.9,3.3-9.7,6.3
		c-3.9,2.9-8.3,7-11.9,12.6c-3.7,5.5-6.4,12.7-7,20.2c-0.6,7.5,0.7,15,2.7,21.4c0.4,1.1,0.8,2.1,1.1,3.1c-6.9,5.9-12.6,12.7-17,20
		c-43.4-17-84-48-102.4-90.8c-6.8-15.7-29.9-2.1-23.1,13.5c20.8,48.2,67.4,83.2,116.4,102.4c-0.4,2.9-0.7,5.9-0.7,9
		c0,27.9,18.1,52.6,45.6,67.1c11.2,34.4,20.8,69.9,25,105.4c1.3,10.6,2.9,23,0.8,33.6c-1.6,7.8-1.8,9.3-6.4,9.4
		c-11,0.3-26.6-15.5-33.9-21.9c-23.5-20.5-44.1-44.4-64.2-68.1c-3.5-4.1-11.7-5.4-16.2-2.1c-15.5,11.3-30.9,22.6-46.3,33.9
		c-13.8,10.1-0.4,33.3,13.5,23.1c12.5-9.1,25-18.2,37.5-27.4c19.8,23.2,40.3,46.2,63.9,65.6c12.4,10.2,27.3,21.9,43.9,23.5
		c27.5,2.6,35.4-24.1,35.7-46.6c0-1.2,0.1-2.4,0.1-3.6c0-37.5-9.7-76.5-21.4-113.5c8.3,1.7,17,2.7,26,2.7c9,0,17.7-1,26-2.7
		c-11.7,37-21.4,76.1-21.4,113.5c0,1.2,0.1,2.4,0.1,3.6c0.4,22.5,8.3,49.2,35.8,46.6c16.6-1.6,31.5-13.3,43.9-23.5
		c23.5-19.3,44.1-42.3,63.9-65.6c12.5,9.1,25,18.2,37.5,27.4c13.9,10.2,27.3-13.1,13.5-23.1c-15.5-11.3-30.9-22.6-46.4-33.9
		c-4.4-3.2-12.7-2.1-16.2,2.1c-19.6,23.1-39.7,46.2-62.3,66.5c-7.5,6.8-24.1,24-35.8,23.6c-4.5-0.2-4.7-1.7-6.4-9.4
		c-2.2-10.6-0.5-23,0.8-33.6c4.3-35.5,13.9-71.1,25-105.4c27.6-14.5,45.6-39.2,45.6-67.1c0-7.5-1.3-14.7-3.8-21.6
		c56.5-29.4,98.4-85.7,115.6-145.9C572.4,66.8,546.6,59.8,541.8,76.3L541.8,76.3z M352.3,267.5c-17.2,0-31.2-14-31.2-31.2
		c0-17.2,14-31.2,31.2-31.2s31.2,14,31.2,31.2C383.5,253.6,369.5,267.5,352.3,267.5z"/>
	<path d="M352.2,226.7c-5.3,0-9.6,4.3-9.6,9.5c0,5.3,4.3,9.6,9.6,9.6s9.6-4.3,9.6-9.6C361.8,231,357.6,226.7,352.2,226.7z"/>
</g>
</svg>
