<?xml version="1.0" encoding="utf-8"?>
<!-- Generator: Adobe Illustrator 27.4.0, SVG Export Plug-In . SVG Version: 6.00 Build 0)  -->
<svg version="1.1" id="Calque_1" xmlns="http://www.w3.org/2000/svg" xmlns:xlink="http://www.w3.org/1999/xlink" x="0px" y="0px"
	 viewBox="0 0 700 700" style="enable-background:new 0 0 700 700;" xml:space="preserve">
<g>
	<path d="M597.5,307.4h-71.1c-17.9,0-34.7-8.4-45.4-22.4l-72.8-98l-7.3-26.9l-1.7,21.3l-16.8-42.6l-0.6,38.1l-18.5-47.6l6.2,45.9
		l-25.2-46.5l12.3,49.8L325.9,126l15.7,54.3l-32.5-51l16.8,51.5l-39.2-43.7l20.7,47l-37.5-40.3l19,43.1l-32.5-36.4l22.4,40.9
		l-33.6-33.6l21.3,34.2L238,166.3c-27.4,6.7-42.6,19.6-51.5,30.8c-6.7,9-10.6,19.6-10.6,30.8v75h-11.8c-8.4,0-16.8-2.8-24.1-7.8
		l-38.6-23.5c-2.8-1.7-5.6,1.1-3.9,3.9l6.2,10.6c12.3,21.8,12.3,48.2,0,69.4L98,365.7c-1.7,2.8,1.7,5.6,3.9,3.9l39.2-24.6
		c6.7-4.5,14.6-6.7,22.4-6.7h5.6v57.7c0,28,29.1,45.9,54.3,33.6l66.6-35.8l-33,28l54.9-32.5H322c12.3-1.1,24.1-4.5,34.2-10.1H373
		c78.4,0,121.5-30.8,145.6-47c9.5-6.2,20.2-9.5,31.4-9.5h42c3.4,0,6.7-2.8,6.7-6.7v-0.6h5v-3.4C602.6,309.7,600.3,307.4,597.5,307.4
		L597.5,307.4z"/>
</g>
</svg>
