<?xml version="1.0" encoding="utf-8"?>
<!-- Generator: Adobe Illustrator 27.4.0, SVG Export Plug-In . SVG Version: 6.00 Build 0)  -->
<svg version="1.1" id="Calque_1" xmlns="http://www.w3.org/2000/svg" xmlns:xlink="http://www.w3.org/1999/xlink" x="0px" y="0px"
	 viewBox="0 0 700 700" style="enable-background:new 0 0 700 700;" xml:space="preserve">
<g>
	<path d="M183.1,370.6c6-41.8,20.2-94.6,51.7-128c18.4,20.1,48.5,33.4,82.6,33.4c2.8,0,5.6-0.2,8.3-0.4c-27,58.4-54,116.8-81,175.2
		c-14.4-9.8-28.8-19.6-43.1-29.4c-14-9.5-27.1,13.2-13.2,22.7c18.4,12.5,36.7,25.1,55.1,37.6c5.5,3.7,15.1,1.4,17.9-4.7
		c16.6-35.9,33.2-71.8,49.8-107.7c12.6-27.3,25.2-54.7,37.9-82c5.5,8.8,10.9,17.6,16.3,26.3c-11.9,21.8-27.1,41.5-40.7,56.4
		c-1.2,1.4-2.1,2.8-2.7,4.2c-4.7,12,11.1,25.5,21.2,14.3c12.6-13.9,25.9-31.1,37.5-50.1c5.1,8.2,10.2,16.5,15.3,24.7
		c5.3,8.6,17.3,8.4,22.7,0c24.2-38.3,48.5-76.7,72.7-115c9.4,8.6,18.8,17.2,28.2,25.8c12.4,11.3,31.1-7.1,18.5-18.6
		c-13.4-12.2-26.8-24.5-40.2-36.7c-6.4-5.8-15.9-4.7-20.6,2.7c-23.3,36.8-46.6,73.7-69.9,110.5c-4.1-6.7-8.2-13.3-12.4-20
		c13.2-28.1,20.9-58.3,16.8-86.9c4.4-8.9,6.8-18.4,6.8-28.5c0-20.5-10-39-26.2-53.1c0.4-0.9,0.7-1.9,1.1-3c2-6.3,3.3-13.6,2.6-20.9
		c-0.5-7.3-3.1-14.5-6.8-19.8c-3.6-5.5-7.9-9.4-11.7-12.3c-3.8-3-7.3-4.8-9.6-6.2c-2.5-1.2-3.8-1.9-3.8-1.9
		c-5.6-2.8-8.9-3.1-9.2-2.3c-0.5,1,1.8,3,6.3,6.9c0,0,1.1,0.9,3,2.6c1.7,1.8,4.5,4.2,6.9,7.5c5.5,6.3,9.6,16.3,7.7,25.3
		c-0.7,4.1-2.5,8.1-4.7,11.8c-16.3-8.7-35.9-13.7-57.1-13.7s-40.8,5.1-57,13.7c-2.2-3.6-3.9-7.6-4.7-11.8c-1.9-9,2.3-18.9,7.7-25.3
		c2.5-3.3,5.2-5.7,6.9-7.5c1.9-1.6,3-2.6,3-2.6c4.5-3.8,6.8-5.9,6.3-6.9c-0.4-0.8-3.7-0.5-9.3,2.3c0,0-1.4,0.7-3.8,1.9
		c-2.3,1.4-5.8,3.2-9.6,6.2c-3.8,2.9-8.1,6.8-11.7,12.3c-3.6,5.4-6.3,12.5-6.8,19.8c-0.6,7.3,0.7,14.7,2.7,20.9c0.3,1.1,0.7,2,1.1,3
		c-16.3,14.1-26.2,32.7-26.2,53.1c0,8.2,1.6,16.1,4.6,23.6c-37.4,36.6-55.7,94.8-62.6,143.4C155.4,380.1,180.7,387.3,183.1,370.6
		L183.1,370.6z M385.9,254.9c-1.2,10.1-3.8,20.1-7.4,30.1c-4-6.3-7.9-12.8-11.9-19.1C373.6,262.8,380.1,259.2,385.9,254.9
		L385.9,254.9z M286.7,145.7c16.9,0,30.6,13.7,30.6,30.6s-13.7,30.6-30.6,30.6s-30.6-13.7-30.6-30.6
		C256.2,159.4,269.9,145.7,286.7,145.7z"/>
	<path d="M277.4,182.2c5.2,0,9.4-4.2,9.4-9.4c0-5.1-4.2-9.4-9.4-9.4c-5.2,0-9.4,4.2-9.4,9.4C268,178.1,272.2,182.2,277.4,182.2z"/>
</g>
</svg>
