<?xml version="1.0" encoding="utf-8"?>
<!-- Generator: Adobe Illustrator 27.4.0, SVG Export Plug-In . SVG Version: 6.00 Build 0)  -->
<svg version="1.1" id="Calque_1" xmlns="http://www.w3.org/2000/svg" xmlns:xlink="http://www.w3.org/1999/xlink" x="0px" y="0px"
	 viewBox="0 0 700 700" style="enable-background:new 0 0 700 700;" xml:space="preserve">
<g>
	<path d="M540.8,150c-20.8,44-41.7,88-62.5,132.1c-11.3-13.7-22.5-27.5-33.8-41.2c4.5-9,7-18.7,7-28.9c0-20.5-10-39-26.2-53.1
		c0.4-0.9,0.7-1.9,1.1-3c2-6.2,3.3-13.6,2.7-20.9c-0.5-7.3-3.1-14.4-6.8-19.8c-3.6-5.5-7.9-9.4-11.7-12.3c-3.8-3-7.2-4.8-9.6-6.2
		c-2.4-1.2-3.8-1.9-3.8-1.9c-5.6-2.8-8.9-3-9.3-2.3c-0.5,1,1.8,3,6.3,6.9c0,0,1.1,0.9,3,2.6c1.7,1.8,4.5,4.2,6.9,7.5
		c5.4,6.3,9.6,16.3,7.7,25.3c-0.7,4.1-2.5,8.1-4.7,11.8c-16.3-8.7-35.9-13.7-57-13.7c-21.1,0-40.8,5.1-57,13.7
		c-2.2-3.6-4-7.6-4.7-11.8c-1.9-9,2.3-18.9,7.7-25.3c2.5-3.3,5.2-5.7,6.9-7.5c1.9-1.6,3-2.6,3-2.6c4.5-3.8,6.9-5.9,6.3-6.9
		c-0.4-0.7-3.7-0.5-9.3,2.3c0,0-1.4,0.7-3.8,1.9c-2.3,1.4-5.8,3.2-9.6,6.2c-3.8,2.9-8.1,6.8-11.8,12.3c-3.6,5.4-6.2,12.5-6.8,19.8
		c-0.6,7.3,0.7,14.7,2.7,20.9c0.3,1.1,0.7,2,1.1,3c-16.3,14.1-26.2,32.7-26.2,53.1c0,10.2,2.5,19.9,7,28.9
		c-11.3,13.7-22.6,27.4-33.8,41.2c-20.9-44-41.7-88-62.5-132.1c-7.2-15.3-29.9-1.9-22.7,13.2c23.6,49.9,47.3,99.8,70.9,149.7
		c3.4,7.2,15.5,8.9,20.6,2.6c14.5-17.7,29.1-35.4,43.6-53.1c10.6,10.1,24.4,18,40.1,23.1v156.2h-26.9c-16.8,0-16.9,26.2,0,26.2h40
		c7.1,0,13.1-6,13.1-13.1V290.7c3.9,0.4,7.9,0.6,12,0.6s8-0.3,12-0.6v164.1c0,7.1,6,13.1,13.1,13.1h40c16.9,0,16.9-26.2,0-26.2
		h-26.9V285.5c15.7-5,29.5-13,40.1-23.1c14.5,17.7,29.1,35.5,43.6,53.1c5.1,6.2,17.2,4.6,20.6-2.6c23.6-49.9,47.3-99.8,70.9-149.7
		C570.6,148.1,548,134.8,540.8,150L540.8,150z M350,228.3c-16.9,0-30.6-13.7-30.6-30.6s13.7-30.6,30.6-30.6s30.6,13.7,30.6,30.6
		S366.9,228.3,350,228.3z"/>
	<path d="M350,188.3c-5.2,0-9.4,4.2-9.4,9.4c0,5.2,4.2,9.4,9.4,9.4c5.2,0,9.4-4.2,9.4-9.4C359.4,192.5,355.2,188.3,350,188.3z"/>
</g>
</svg>
