<?xml version="1.0" encoding="utf-8"?>
<!-- Generator: Adobe Illustrator 27.4.0, SVG Export Plug-In . SVG Version: 6.00 Build 0)  -->
<svg version="1.1" id="Calque_1" xmlns="http://www.w3.org/2000/svg" xmlns:xlink="http://www.w3.org/1999/xlink" x="0px" y="0px"
	 viewBox="0 0 700 700" style="enable-background:new 0 0 700 700;" xml:space="preserve">
<g>
	<path d="M156.8,511c10.7,0.2,21-3.4,29.3-10.2c9.8-9.1,15.4-21.8,15.8-35.1c0.8-9.5-2.5-18.9-9.1-25.8c-1.6-1.7-3.8-2.7-6.1-2.8
		c-3.7,0-7.5,3-7.7,9.7c-0.4,10.1-5.1,25.3-16.8,25.3c-2.7-0.1-5.4-0.7-7.9-1.8c-6.8-2.4-11.7-8.2-13.1-15.2
		c-1.9-10.6,4.2-24.7,15.1-35c20.4-19.2,44.6-19.7,70.2-20.2c25.2-0.5,59.3-3.1,78.8-18.6h0c0.1,17.9-5.2,35.3-15.3,50.1
		c-4.3,6.6-9.5,13.1-14.9,20c-15.7,19.8-31.9,40.3-32.3,65.7v0c-0.1,10.4,2.8,20.7,8.3,29.6c9.2,13.3,27.9,22.4,41.4,25.1
		c3.4,1.2,7.2-0.2,9.1-3.4c1.2-3.2,0.2-6.8-2.4-9c-12.1-13.8-29-40.3-6.3-63.8c5.6-5.8,11.8-11.5,17.7-16.9
		c14.2-12.9,28.8-26.2,38.1-44.1c0.4-0.8,0.8-1.6,1.3-2.4c0.4,0.8,0.8,1.7,1.3,2.4c9.3,17.8,24,31.1,38.1,44.1
		c5.9,5.4,12.1,11.1,17.7,16.9c22.6,23.5,5.7,50.1-6.3,63.8c-2.6,2.2-3.5,5.8-2.4,9c7.2,15.8,45.5-14.5,50.5-21.7
		c5.5-8.9,8.3-19.1,8.3-29.6c-0.5-25.4-16.7-45.9-32.3-65.7c-5.4-6.9-10.6-13.4-14.9-20v0c-10.1-14.8-15.4-32.2-15.3-50.1
		c19.5,15.5,53.6,18.1,78.8,18.6c25.6,0.5,49.8,1,70.2,20.2c10.9,10.3,17,24.4,15.1,35h0c-1.4,7-6.4,12.8-13.1,15.2
		c-2.5,1.1-5.2,1.8-7.9,1.8c-11.7,0-16.4-15.2-16.8-25.4c-0.2-6.6-4.1-9.6-7.7-9.6c-2.3,0.1-4.5,1.1-6.1,2.8
		c-6.6,6.9-9.9,16.3-9.1,25.8c0.4,13.4,6.1,26,15.8,35.1c8.3,6.7,18.7,10.3,29.3,10.2c18.8,0,36.3-9.3,46.6-24.9
		c12.4-19.8,10.9-46.8,5.4-65.3c-9.2-31.1-37.8-48.9-53.9-56.7c-13.4-5.9-27.4-10.5-41.7-13.6c-20.5-5.2-41.6-10.6-56.9-23.5
		c-6.6-5.6-12-21-13.3-29.6c-3.9-26.9,10.2-50.4,23.8-73.2c4.1-6.9,8.3-14,11.9-21c24.2-47.1,21-118.6-26.3-156.5
		C411.1,24.3,380.9,13,349.3,13c-13.2,0.1-26.3,2-38.9,5.7c-61.3,17.9-98.2,69.6-91.8,128.7c2.6,26.2,9.5,51.8,20.4,75.9
		c3.6,7.9,8.2,15.7,12.6,23.1c9,15.3,18.2,31.2,20,48.7v0c0.7,12.3-4.7,24.2-14.3,31.9c-15.3,12.9-36.4,18.3-56.9,23.5
		c-14.3,3.1-28.3,7.7-41.7,13.6c-16.2,7.9-44.7,25.7-53.9,56.7c-5.5,18.6-7,45.5,5.4,65.3C120.5,501.7,138,511.1,156.8,511
		L156.8,511z M389.5,75.3c0.6-2.3,3-3.7,5.3-3.2c1.4,0.4,33.8,8.9,38.3,43c0.2,1.2-0.2,2.5-1,3.4c-0.8,0.9-2.1,1.4-3.3,1.4
		c-2.2,0.1-4.1-1.5-4.3-3.7c-3.7-28.3-31.5-35.6-31.7-35.6c-1.1-0.3-2.1-1-2.7-2C389.4,77.6,389.2,76.4,389.5,75.3L389.5,75.3z
		 M389.4,188c3.5,0,6.7,2.1,8.1,5.4c1.4,3.3,0.6,7-1.9,9.5s-6.3,3.2-9.5,1.9c-3.3-1.4-5.4-4.5-5.4-8.1
		C380.6,191.9,384.5,188,389.4,188z M310.6,188c3.5,0,6.7,2.1,8.1,5.4c1.4,3.3,0.6,7-1.9,9.5s-6.3,3.2-9.5,1.9
		c-3.3-1.4-5.4-4.5-5.4-8.1C301.9,191.9,305.8,188,310.6,188z"/>
	<path d="M132.2,322c9.6,13.4,23.6,23.1,39.5,27.3c8.6-2.9,17.3-5.1,25.9-7.3l0.5-0.1c19.5-5,39.7-10.1,53.4-21.7
		c7.4-5.8,11.6-14.8,11.2-24.3c-1-8.1-3.4-16-7-23.3c-5.9,9.5-14.1,17.4-23.8,23.1c-19.3,10.3-35.2,12.6-53.2,7.6
		c-12.9-3.5-25.4-15.2-23-27.8h0c0.9-4.7,3.7-8.8,7.7-11.4c3.4-2.2,7.5-2.8,11.4-1.7c6.1,1.7,11.1,6,13.9,11.8
		c0.6,1.2,1.8,2,3.1,2.3c1.3,0.2,2.7-0.1,3.7-1c4.6-3.9,6.9-9.8,6.1-15.8c-1.8-9.8-7.9-18.4-16.6-23.2c-12.6-6.3-27.4-6.7-40.3-1
		c-27,11.9-30.8,42.3-22.9,65.5C124.3,308.4,127.8,315.5,132.2,322L132.2,322z"/>
	<path d="M495.7,275.5c1,0.9,2.4,1.3,3.7,1c1.3-0.2,2.5-1.1,3.1-2.3c2.7-5.8,7.8-10.1,14-11.8c3.8-1.1,8-0.4,11.3,1.8
		c4,2.6,6.8,6.7,7.7,11.4c2.4,12.6-10.1,24.3-23,27.8c-18,4.9-33.9,2.6-53.2-7.6c-8.1-4.6-15.1-11-20.6-18.6v0v0
		c-1.2,6.2-1.4,12.6-0.5,18.9c1.1,7.9,6.1,20.7,10.3,24.2c13.7,11.6,33.9,16.7,53.4,21.7l0.5,0.1c7.1,1.8,14.3,3.7,21.4,5.9v0
		c14.2-4.6,26.6-13.7,35.3-25.9c4.4-6.5,7.9-13.6,10.4-21c7.9-23.2,4.2-53.7-22.9-65.5c-12.9-5.7-27.7-5.3-40.3,1
		c-8.7,4.9-14.8,13.4-16.6,23.2C488.9,265.6,491.2,271.6,495.7,275.5L495.7,275.5z"/>
</g>
</svg>
