<?xml version="1.0" encoding="utf-8"?>
<!-- Generator: Adobe Illustrator 27.4.0, SVG Export Plug-In . SVG Version: 6.00 Build 0)  -->
<svg version="1.1" id="Calque_1" xmlns="http://www.w3.org/2000/svg" xmlns:xlink="http://www.w3.org/1999/xlink" x="0px" y="0px"
	 viewBox="0 0 700 700" style="enable-background:new 0 0 700 700;" xml:space="preserve">
<g>
	<path d="M445.2,445.8h-6.7c0-1.7,0.6-3.4,0.6-5V330.4l9.5-19.6l-3.4-10.6l-10.6-31.4c-1.1-3.4-5.6-3.4-6.2,0l-13.4,42l9.5,17.4
		v113.1c0,1.7,0,3.4-0.6,5h-20.7l-25.8-34.2V397l4.5-2.2v-28.6h0.6l1.1-2.2l4.5-6.2c3.4-4.5,3.4-10.6,0-15.1l-4.5-6.2l-1.7-2.2h-0.6
		v-16.2l3.4-1.1v-26.3l5-1.1v-75l-10.6-53.2l29.7-38.6L359,28h-18.5l-50.4,94.6l30.2,39.8l-10.6,52.1v75l3.9,1.1v26.9l3.4,1.7V336
		l-0.6,0.6l-4.5,6.2c-3.4,4.5-3.4,10.6,0,15.1l4.5,6.2l1.1,1.1v29.1l5,2.8v14.6l-25.8,34.2h-20.7c-0.6-1.7-0.6-3.4-0.6-5v-112
		l10.1-18.5l-3.4-10.6h0.6l-10.1-30.8c-0.6-1.7-2.2-2.2-3.4-2.2c-1.7,0-2.8,0.6-3.4,2.2l-12.9,42l8.4,18.5v112.6c0,1.7,0,3.4,0.6,5
		h-7.3c-9.5,0-17.4,7.8-17.4,17.4V485c8.4,0,14.6-6.7,14.6-14.6v-7.8h14c6.7,10.6,18.5,17.9,31.9,17.9c14,0,26.3-7.8,32.5-19v11.2
		c-0.6,1.7-1.7,2.8-2.8,3.9l-2.8,2.8c-3.4,2.2-6.7,3.9-11.2,3.9h-31.9c-9.5,0-19,3.9-25.8,10.6l-5.6,5.6h53.2l-36.4,34.2h4.5
		c11.2,0.6,21.8-3.4,30.2-11.2l27.4-25.8c9.5-3.9,16.8-12.9,18.5-23.5c1.7,10.6,9,19.6,19,23.5l27.4,25.8c8.4,7.8,19,11.8,30.2,11.2
		h4.5l-36.4-34.2h53.2l-5.6-5.6c-6.7-6.7-16.2-10.6-25.8-10.6h-31.9c-3.9,0-7.8-1.1-11.2-3.4l-3.4-2.8c-1.1-1.1-1.7-2.2-2.2-3.9V462
		c6.7,11.2,18.5,19,32.5,19c13.4,0,25.8-7.3,31.9-17.9h14v7.8c0,8.4,6.7,14.6,14.6,14.6v-20.7C462,453.6,454.2,445.8,445.2,445.8
		L445.2,445.8z M299,464.8c-5,0-9.5-1.7-12.9-3.9h9.5c5.6,0,11.2-2.8,14.6-7.8l12.9-17.4v5.6C322.6,454.2,311.9,464.8,299,464.8
		L299,464.8z M401,464.8c-12.9,0-23.5-10.6-23.5-23.5v-5.6l12.9,17.4c3.4,5,8.4,7.8,14.6,7.8h9.5C410.5,463.1,406,464.8,401,464.8
		L401,464.8z"/>
</g>
</svg>
