<?xml version="1.0" encoding="utf-8"?>
<!-- Generator: Adobe Illustrator 27.4.0, SVG Export Plug-In . SVG Version: 6.00 Build 0)  -->
<svg version="1.1" id="Calque_1" xmlns="http://www.w3.org/2000/svg" xmlns:xlink="http://www.w3.org/1999/xlink" x="0px" y="0px"
	 viewBox="0 0 700 700" style="enable-background:new 0 0 700 700;" xml:space="preserve">
<g>
	<path d="M231.6,336.6c1-33.9,15.5-67,37.3-93.4c6.2,6.6,13.6,12.4,22,17.2c9.1,35.2,18.3,70.4,27.5,105.6c-26,23.1-52,46.2-78,69.2
		c-5,4.4-5.1,14,0,18.4c9.9,8.4,19.8,16.8,29.7,25.3c12.7,10.8,31.2-7.5,18.4-18.4c-6.4-5.4-12.7-10.8-19.1-16.3
		c24.3-21.5,48.5-43,72.8-64.5c3.4-3.1,4.4-8.4,3.3-12.7c-8.2-31.6-16.4-63.1-24.6-94.7c4.7,1.1,9.7,1.9,14.7,2.5
		c22.9,62.7,45.8,125.4,68.8,188.1c2.8,7.7,11.4,12.4,19.1,7.7c16.4-9.9,32.7-19.8,49.2-29.6c14.3-8.6,1.2-31.1-13.1-22.4
		c-12,7.2-23.9,14.4-35.8,21.6c-20.1-55.1-40.3-110.2-60.4-165.3c28-2.9,52.2-14.7,68.1-31.6c21.7,26.5,36.3,59.6,37.3,93.4
		c0.5,16.7,26.5,16.7,26,0c-1.2-42.5-20-84.3-48.5-116.2c3-7.4,4.6-15.3,4.6-23.5c0-20.3-9.9-38.7-26-52.6c0.4-1,0.7-1.9,1-3
		c2-6.2,3.2-13.5,2.7-20.7c-0.5-7.3-3.2-14.3-6.8-19.7c-3.5-5.4-7.8-9.4-11.6-12.2c-3.7-3-7.2-4.7-9.5-6.2c-2.4-1.1-3.7-1.8-3.7-1.8
		c-5.6-2.8-8.8-3.1-9.2-2.3c-0.5,0.9,1.8,3,6.2,6.8c0,0,1.1,0.9,3,2.5c1.7,1.8,4.4,4.1,6.9,7.4c5.4,6.2,9.5,16.2,7.6,25
		c-0.8,4.2-2.5,8.1-4.7,11.7c-16.1-8.6-35.5-13.6-56.5-13.6c-21,0-40.4,5-56.5,13.6c-2.1-3.6-3.9-7.5-4.6-11.7
		c-1.9-8.8,2.2-18.8,7.5-25c2.5-3.3,5.2-5.7,6.9-7.4c1.9-1.6,3-2.5,3-2.5c4.5-3.8,6.8-5.9,6.2-6.8c-0.4-0.8-3.6-0.5-9.1,2.3
		c0,0-1.4,0.7-3.8,1.8c-2.2,1.5-5.7,3.2-9.5,6.2c-3.8,2.8-8.1,6.8-11.6,12.2c-3.6,5.4-6.2,12.4-6.8,19.7c-0.6,7.3,0.7,14.5,2.7,20.7
		c0.4,1,0.7,2,1.1,3c-16.1,13.9-26,32.4-26,52.6c0,8.2,1.6,16.1,4.6,23.5c-28.5,31.9-47.2,73.7-48.5,116.2
		C205.1,353.3,231.1,353.3,231.6,336.6L231.6,336.6z M386.4,152.4c16.7,0,30.3,13.6,30.3,30.3c0,16.7-13.6,30.3-30.3,30.3
		c-16.7,0-30.3-13.6-30.3-30.3C356.1,166,369.7,152.4,386.4,152.4z"/>
	<path d="M395.7,182.7c0,5.1-4.2,9.3-9.3,9.3c-5.1,0-9.3-4.2-9.3-9.3s4.2-9.3,9.3-9.3C391.5,173.4,395.7,177.6,395.7,182.7"/>
</g>
</svg>
