<?xml version="1.0" encoding="utf-8"?>
<!-- Generator: Adobe Illustrator 27.4.0, SVG Export Plug-In . SVG Version: 6.00 Build 0)  -->
<svg version="1.1" id="Calque_1" xmlns="http://www.w3.org/2000/svg" xmlns:xlink="http://www.w3.org/1999/xlink" x="0px" y="0px"
	 viewBox="0 0 700 700" style="enable-background:new 0 0 700 700;" xml:space="preserve">
<g>
	<path d="M420.4,194.6H279.9c-1.3,0-2.4,0.8-2.9,1.9c-0.5,1.2-0.2,2.5,0.7,3.4c8.5,8,29.6,22.2,72.6,22.2c43,0,63.9-14.2,72.2-22.2
		c0.9-0.9,1.2-2.2,0.7-3.4C422.9,195.3,421.7,194.6,420.4,194.6L420.4,194.6z"/>
	<path d="M287.9,177.1c4.5,0,8.6-2.7,10.4-6.9c1.7-4.2,0.8-9-2.4-12.2c-3.2-3.2-8-4.2-12.2-2.4c-4.2,1.7-6.9,5.8-6.9,10.4
		c0,3,1.2,5.8,3.3,7.9C282.1,176,284.9,177.1,287.9,177.1L287.9,177.1z"/>
	<path d="M423.6,165.9c0,6.2-5,11.2-11.2,11.2c-6.2,0-11.2-5-11.2-11.2c0-6.2,5-11.2,11.2-11.2C418.6,154.7,423.6,159.7,423.6,165.9
		"/>
	<path d="M621.1,259c-22.2-35.2-56-71.9-106.6-115.5c-5.5-4.7-11.4-14.4-18.1-25.7C475.7,83.7,444.6,32.1,363.9,6.4v0
		c-9.1-2.9-18.8-2.9-27.8,0c-69.4,22.1-102.1,63.3-123,96.2c-4.1-2.3-8.8-3.6-13.5-3.6c-6.2,0.1-12.2,2.2-17.1,6
		c-4.9,3.8-8.5,9.1-10.1,15.1c-5-0.3-10.1,0.9-14.4,3.3c-4.6,2.4-8.4,5.9-11.2,10.3c-2.7,4.4-4.3,9.4-4.4,14.5
		c0,9.3,4.5,18,12.2,23.3c-33.8,31.8-58.4,60.2-75.6,87.6c-3.3,5.2-4.9,11.3-4.7,17.5s2.2,12.1,5.8,17.2
		C99.8,322,154.8,389.5,236.6,404c8.8,1.7,17,5.6,23.8,11.4c25.3,21.3,59.2,46.2,83,50.5c-1.4,35.5-15.3,60.7-39.6,71.2
		c-28.2,12.2-65.7,2.9-93.3-23c-35.8-33.6-67.5-49.1-94.4-46.3c-17.2,1.8-31.7,11.1-43.1,27.5c-1,1.4-1.4,3.2-1.1,4.9
		c0.3,1.7,1.3,3.2,2.7,4.2c3,2.1,7.1,1.3,9.1-1.7c9.1-13.2,20.4-20.6,33.7-22c22.6-2.4,51.6,12.4,84,42.8v0
		c20.3,19.7,47.3,31.1,75.6,31.8c10.9,0.1,21.8-2.1,31.9-6.3c17.2-7.4,45.5-28.1,47.4-83.2c23.8-4.1,57.9-29.2,83.3-50.5h0
		c6.8-5.8,15-9.8,23.8-11.4c81.7-14.5,136.8-82,156.6-110.3c3.6-5,5.6-11,5.8-17.2C626,270.4,624.3,264.3,621.1,259L621.1,259z
		 M164.2,134.9c2.5-1.5,5.4-2.1,8.2-1.7c5.7,0.9,11.1-2.9,12.2-8.5c0.7-3.5,2.5-6.6,5.2-8.9s6.1-3.6,9.7-3.7
		c3.5,0.1,6.9,1.4,9.6,3.6c2.7,2.3,4.5,5.4,5.2,8.8c1.1,5.6,6.5,9.4,12.2,8.6c2.9-0.4,5.8,0.1,8.4,1.6c2.5,1.2,4.7,3.1,6.2,5.5
		c1.5,2.3,2.4,5.1,2.6,7.9c0,2.7-0.7,5.3-2.1,7.6c-1.4,2.3-3.3,4.2-5.6,5.6c-5.1,2.8-7.1,9.2-4.5,14.4c2.1,4.3,1.9,9.4-0.3,13.6
		c-2.3,4.2-6.4,7.1-11.2,7.8c-4.8,0.7-9.5-0.9-12.9-4.3c-4.2-4.1-10.9-4.1-15,0c-3.4,3.4-8.2,5-12.9,4.3c-4.7-0.7-8.9-3.6-11.2-7.8
		c-2.3-4.2-2.4-9.3-0.4-13.6c2.6-5.2,0.6-11.6-4.5-14.4c-2.3-1.3-4.3-3.2-5.6-5.6c-1.4-2.3-2.1-5-2.1-7.6c0.1-2.8,1-5.5,2.6-7.9
		C159.5,138,161.7,136.1,164.2,134.9L164.2,134.9z M461.1,391.1c-11.1,2.1-21.4,7-29.9,14.3c-35.8,30.1-66.2,48.1-81.2,48.1
		s-45.4-18-81.2-48.1c-8.5-7.3-18.9-12.2-29.9-14.3c-51-9-91.2-40.3-118-68.2c8.3-9,16.9-18,25.6-26.9
		c14.8-15.2,27.9-52.1,53.5-91.8h0c5,4.1,11.3,6.3,17.8,6.3c2.5,0,4.9-0.3,7.3-0.9c7.8-2.1,14.4-7.4,18-14.6c3.6-7.2,4-15.6,1-23.2
		c8-5.2,12.8-14.2,12.7-23.7c0-2.8-0.5-5.5-1.4-8.1c22.6-19.1,48.1-34.3,75.7-44.9c12.2-4.8,25.8-4.8,38,0
		c132.4,52.1,154.8,170.3,184.7,200.9c8.7,8.9,17.1,17.8,25.4,26.7C552.4,350.6,512.2,382,461.1,391.1L461.1,391.1z"/>
	<path d="M213.8,157.5c0,7.9-6.4,14.3-14.3,14.3c-7.9,0-14.3-6.4-14.3-14.3c0-7.9,6.4-14.3,14.3-14.3
		C207.4,143.2,213.8,149.6,213.8,157.5"/>
</g>
</svg>
