<?xml version="1.0" encoding="utf-8"?>
<!-- Generator: Adobe Illustrator 27.4.0, SVG Export Plug-In . SVG Version: 6.00 Build 0)  -->
<svg version="1.1" id="Calque_2" xmlns="http://www.w3.org/2000/svg" xmlns:xlink="http://www.w3.org/1999/xlink" x="0px" y="0px"
	 viewBox="0 0 700 700" style="enable-background:new 0 0 700 700;" xml:space="preserve">
<path d="M597.5,297.4h-1.7c2.8-1.1,5-3.9,5-6.7c0-3.9-3.4-7.3-7.3-7.3h-11.2c-5-2.8-10.1-6.2-14.6-10.1c-9-7.8-15.1-16.2-20.2-24.6
	v-47L499,148.4l-2.2-7.8l0,5l-4.5-5v8.4l-8.4-19v18.5L467.6,112v20.2l-19-33.6l4.5,23.5l-23.5-30.2l6.7,24.6l-19-24.1v16.2l-16.2-19
	l2.2,14l-15.1-14l-0.6,7.8l-12.3-7.8l0.6,6.2L359,91.3l-107,27.4c-3.4,1.1-6.2,2.2-9.5,3.4c-38.1,10.1-66.1,44.8-66.1,86.2
	c0,14.6,3.4,28,9.5,39.8c2.8,6.2,5.6,12.3,9.5,18.5l9.5,15.1c-0.6,0-1.1-0.6-1.1-0.6l-77.3-31.4c-2.2-1.1-3.9-1.1-6.2-1.1
	s-3.9,0.6-6.2,1.1c-2.8,1.1-5.6,2.8-7.3,5.6c-0.6,1.1-1.1,1.7-1.7,2.8c-3.9,9-7.8,24.1-8.4,49.8v2.8c0.6,19,2.8,32.5,5.6,42
	c1.1,2.8,2.2,5.6,2.8,7.8c1.7,3.9,5,6.7,9,8.4c2.2,0.6,3.9,0.6,6.2,0.6c2.2,0,3.9-0.6,6.2-1.1l53.2-20.7c-9,26.9-1.1,57.1,17.4,77.8
	l3.4,3.4c7.3,7.8,15.1,14,24.1,18.5c20.7,12.3,45.9,15.1,69.4,6.7l54.3-19.6c4.5,0.6,8.4,1.1,12.9,1.7c1.1,0,2.2,0,3.4,0.6
	c4.5,0.6,8.4,0.6,12.9,0.6h1.1c3.9,0,7.8,0,11.8-0.6c1.1,0,2.8,0,3.9-0.6c3.9-0.6,7.8-0.6,11.8-1.1c1.1,0,2.2-0.6,3.4-0.6
	c3.4-0.6,6.7-1.1,10.1-1.7c1.7-0.6,3.4-0.6,5-1.1c0.6,0,1.1,0,2.2-0.6l-0.6,0.6l-5.6,2.8c-8.4,4.5-14,12.3-15.1,21.3v3.9v22.4
	c0,1.1,0.6,2.2,1.1,3.4c1.7,2.8,6.2,3.9,9.5,2.2l1.1-0.6l7.3-5c19.6-12.9,34.2-31.9,41.4-54.3l29.7-11.8
	c31.4-23.5,49.3-30.8,52.1-70v-6.7c7.3-7.3,16.8-14,28.6-20.2l23-7.3c2.8-1.1,4.5-3.4,4.5-6.7C604.2,300.7,600.9,297.4,597.5,297.4
	L597.5,297.4z"/>
</svg>
