<?xml version="1.0" encoding="utf-8"?>
<!-- Generator: Adobe Illustrator 27.4.0, SVG Export Plug-In . SVG Version: 6.00 Build 0)  -->
<svg version="1.1" id="Calque_1" xmlns="http://www.w3.org/2000/svg" xmlns:xlink="http://www.w3.org/1999/xlink" x="0px" y="0px"
	 viewBox="0 0 700 700" style="enable-background:new 0 0 700 700;" xml:space="preserve">
<g>
	<path d="M600.9,233.5l-21.3-19l-10.1-17.4l-19-9.5c1.1-3.4,1.7-7.3,0.6-10.6l-1.1-5.6l-2.2-10.6l-11.2,20.2l-66.1-32.5h-149
		c-70.6,0-117,21.8-147.3,69.4h0.6c-2.8,5-4.5,10.1-5,16.2L155.1,303l-40.3,40.9L98,411h29.1v-9l-9.5-5l16.8-42l61.6-37.5l12.3-20.7
		l15.7,17.4l10.6,26.3v30.8l38.6,39.8h19V401l-16.8-5.6l-19.6-29.1l11.8-66.6l17.9-17.9v10.6l10.6-10.6v10.6l11.2-11.2v11.2
		l11.2-11.2v11.2l11.2-11.2v11.2l10.6-10.6v9.5l-4.5,55.4l10.1,63.8h27.4l-1.7-9l-11.8-6.2l-5.6-48.7l31.4-50.4l5.6,18.5l71.1,34.2
		l9,44.8h26.3v-9l-15.1-7.8l-5.6-40.9l-39.2-30.2v-17.9l38.6-38.6v11.2l10.6-10.6v10.6l10.6-10.6v10.6l10.6-10.6v10.6l11.2-11.2
		v11.2l11.2-11.2v11.2l11.2-11.2h15.1l16.2,5c4.5,1.1,9.5,0,12.9-2.8l3.4-2.8h3.4l4.5-6.2l2.8-3.4L600.9,233.5z"/>
</g>
</svg>
