<?xml version="1.0" encoding="utf-8"?>
<!-- Generator: Adobe Illustrator 27.4.0, SVG Export Plug-In . SVG Version: 6.00 Build 0)  -->
<svg version="1.1" id="Calque_1" xmlns="http://www.w3.org/2000/svg" xmlns:xlink="http://www.w3.org/1999/xlink" x="0px" y="0px"
	 viewBox="0 0 700 700" style="enable-background:new 0 0 700 700;" xml:space="preserve">
<g>
	<path d="M133.8,384.7l70-27.4l-13.4,27.4l93-47l-15.1,17.9c-0.6,0.6-0.6,1.7-0.6,2.2c0,1.1,0.6,1.7,1.7,1.7l44.2,21.3v131.6h-26.9
		c-1.7,0-2.8,1.1-2.8,2.8s1.1,2.8,2.8,2.8h34.7l43.1,14h1.1c1.1,0,2.2-0.6,2.8-1.7c0.6-1.7-0.6-2.8-1.7-3.4l-28-9.5h38.1
		c1.7,0,2.8-1.1,2.8-2.8s-1.1-2.8-2.8-2.8h-58.2V410.5c0,0.6,0.6,1.1,1.1,1.7c1.1,0.6,2.8,0.6,3.9-1.1l10.1-16.2l10.6,50.4
		c0.6,1.1,1.7,2.2,2.8,2.2h0.6c1.7-0.6,2.2-1.7,2.2-3.4l-6.2-29.7l19,43.7c0.6,1.1,1.7,1.7,2.8,1.7h1.1c1.7-0.6,2.2-2.2,1.7-3.9
		L338.2,387h-0.6h-0.6l-17.4-8.4v-18.5h2.8l15.1-48.7l36.4-18.5l10.6-3.9l22.4-29.7c1.1-1.7,2.8-3.4,3.9-5l-16.2,46.5l39.2-96.3
		l-16.8,86.2l25.2-93l-7.8,80.6l15.7-87.4l-1.7,73.9l8.4-80.1l2.2,68.3l3.9-69.4h0.6l3.4,52.6l1.1-65.5l4.5,44.8v-47
		c0,0,0.6,0,0.6-0.6l3.9,30.2v-32.5c0.6,0,0.6-0.6,1.1-0.6L481,182v-19.6c2.2-2.2,4.5-4.5,6.2-7.3c2.8-3.9,4.5-9,5.6-13.4
		c0-1.1,0.6-2.2,0.6-3.9v-3.9c0-2.2,0-5-0.6-7.3c-1.7-9.5-7.3-18.5-15.1-23.5c-3.9-2.8-8.4-5-12.9-6.2c-1.1-0.6-2.2-0.6-3.4-0.6
		h-1.7h-7.8h-9h-8.4h-4.5h-1.7h-1.1c-1.7,0-3.4-0.6-4.5-1.1c-2.8-1.1-5.6-2.8-7.3-5s-3.4-4.5-3.9-7.3c-0.6-1.1-0.6-2.2-0.6-3.9v-0.6
		v-1.1v0.6v-0.6v-0.6l1.7-1.1h153.4h-0.6h0.6l-98.6-30.2l-33-17.4h-89l62.7,3.4l-62.7,11.2l54.9-6.2c-13.4,8.4-20.2,23-20.2,39.2
		v3.9h1.1c0,4.5,1.1,9,2.2,12.9c2.2,6.7,6.2,12.9,11.2,17.9c5,5,11.8,9.5,19,12.3c3.9,1.1,7.8,2.2,11.8,2.2h2.8h2.8h4.5h8.4h9h3.9
		h1.1c1.1,0.6,2.2,1.1,3.4,1.7c2.2,1.7,3.9,3.9,4.5,6.7v2.2v0.6v1.1c0,1.1-0.6,2.8-1.7,3.9c-1.7,2.2-3.9,3.9-6.7,4.5h-2.2h-3.9h-9.5
		h-19h-36.4H369h-6.7c-24.1-3.4-49.3,5.6-65,26.3L133.8,384.7z M420.6,202.2l1.1-1.1l-1.1,1.7V202.2L420.6,202.2z M421.1,220.1v-5
		l2.8-4.5L421.1,220.1z M318.6,383.6l12.3,6.2l-11.8,19c0,0,0,0.6-0.6,1.1L318.6,383.6z M296.2,331l6.2-2.8l7.8,30.2h2.8v16.2
		l-38.6-18.5L296.2,331z"/>
</g>
</svg>
