<?xml version="1.0" encoding="utf-8"?>
<!-- Generator: Adobe Illustrator 27.4.0, SVG Export Plug-In . SVG Version: 6.00 Build 0)  -->
<svg version="1.1" id="Calque_1" xmlns="http://www.w3.org/2000/svg" xmlns:xlink="http://www.w3.org/1999/xlink" x="0px" y="0px"
	 viewBox="0 0 700 700" style="enable-background:new 0 0 700 700;" xml:space="preserve">
<g>
	<path d="M248.5,195.8c0,15.6,5.8,30.1,15.8,42.4v164.8c0,16.9,26.2,16.9,26.2,0V260c4.1,2.4,8.4,4.5,13,6.3V458h-22
		c-16.9,0-16.9,26.2,0,26.2h35.1c7.1,0,13.1-6,13.1-13.1V273.6c6.5,1,13.3,1.6,20.2,1.6c8.2,0,16.2-0.8,23.8-2.3V458h-22
		c-8.4,0-12.7,6.6-12.7,13.1s4.2,13.1,12.7,13.1h35.1c7.1,0,13.1-6,13.1-13.1V264.7c5.2-2.3,10.1-4.9,14.6-7.9v146
		c0,16.9,26.2,16.9,26.2,0V230.8c6.7-10.6,10.5-22.5,10.5-35c0-20.5-10-39-26.2-53.1c0.4-1,0.7-2,1.1-3c2-6.2,3.3-13.5,2.7-20.9
		c-0.5-7.3-3.1-14.4-6.8-19.8c-3.6-5.5-7.9-9.4-11.7-12.3c-3.8-3-7.2-4.8-9.6-6.2c-2.4-1.2-3.8-1.9-3.8-1.9c-5.6-2.8-8.9-3-9.3-2.3
		c-0.5,0.9,1.8,3,6.3,6.8c0,0,1.1,0.9,3,2.6c1.7,1.8,4.4,4.2,6.9,7.5c5.4,6.3,9.6,16.4,7.7,25.3c-0.7,4.1-2.5,8.1-4.7,11.8
		c-16.3-8.7-35.9-13.7-57-13.7c-21.1,0-40.8,5.1-57,13.7c-2.2-3.6-4-7.6-4.7-11.8c-1.9-8.9,2.3-18.9,7.7-25.3
		c2.5-3.3,5.2-5.7,6.9-7.5c1.9-1.6,3-2.6,3-2.6c4.5-3.8,6.9-5.9,6.3-6.8c-0.4-0.8-3.7-0.5-9.3,2.3c0,0-1.4,0.7-3.8,1.9
		c-2.3,1.4-5.8,3.2-9.6,6.2c-3.8,2.9-8.1,6.9-11.8,12.3c-3.6,5.4-6.2,12.5-6.8,19.8c-0.6,7.4,0.7,14.7,2.7,20.9c0.3,1.1,0.7,2,1.1,3
		C258.5,156.7,248.5,175.3,248.5,195.8L248.5,195.8z M350,150.8c16.9,0,30.6,13.7,30.6,30.6c0,16.9-13.7,30.6-30.6,30.6
		c-16.9,0-30.6-13.7-30.6-30.6C319.4,164.5,333.1,150.8,350,150.8z"/>
	<path d="M350,190.8c5.2,0,9.4-4.2,9.4-9.3c0-5.2-4.2-9.4-9.4-9.4c-5.2,0-9.4,4.2-9.4,9.4C340.6,186.6,344.8,190.8,350,190.8z"/>
</g>
</svg>
