<?xml version="1.0" encoding="utf-8"?>
<!-- Generator: Adobe Illustrator 27.4.0, SVG Export Plug-In . SVG Version: 6.00 Build 0)  -->
<svg version="1.1" id="Calque_1" xmlns="http://www.w3.org/2000/svg" xmlns:xlink="http://www.w3.org/1999/xlink" x="0px" y="0px"
	 viewBox="0 0 700 700" style="enable-background:new 0 0 700 700;" xml:space="preserve">
<g>
	<path d="M600.9,292.9c-1.7-3.4-5-3.9-7.8-2.8l-5.6,2.2c-1.7,0.6-3.9-0.6-4.5-2.2c0-1.1,0-2.2,1.1-2.8l3.4-2.8
		c2.2-2.2,2.2-5.6,0-7.8s-5.6-1.7-7.8,0l-4.5,4.5c-1.1,1.1-2.2,0.6-3.4,0c-1.1-1.1-0.6-2.2,0-3.4l1.7-1.7c1.1-1.1,1.1-2.2,0.6-3.4
		c-1.1-1.7-2.8-1.7-4.5-0.6l-1.7,1.7c-5,5-12.9,5-17.9,0.6c-6.2-5-6.2-14.6-0.6-19.6c12.3-11.8,16.8-2.2,30.2-15.1l17.9-16.8
		c2.2-2.2,2.2-5.6,0-7.8c-2.2-2.2-5.6-1.7-7.8,0l-14.6,14c-4.5,4.5-11.2,4.5-16.2,0.6c-5-4.5-5-12.3-0.6-17.4l19.6-18.5
		c2.2-1.7,2.2-5,0.6-7.3c-1.7-2.2-5-2.2-7.3-0.6L560,196.6c-2.2,2.2-5.6,2.2-7.8,0.6c-1.1-1.1-2.2-2.8-2.2-4.5l1.7-3.9l0.6-0.6
		l9-23.5c1.1-2.8-0.6-6.2-3.4-7.3c-2.8-1.1-6.2,0.6-7.3,3.4l-11.8,31.4c-1.1,3.4-6.2,3.9-7.8,0.6c-7.3-15.1-11.8-24.6,3.4-42
		c2.2-2.2,1.7-6.2-0.6-7.8c-2.2-2.2-6.2-1.7-7.8,0.6c-20.2,23.5-12.9,38.6-5,54.9c5,9.5,9.5,19.6,10.1,34.2l0.6,5.6l-2.2,1.1
		l-97.4-89.6l-73.4-19.6c-11.2-3.4-23.5,0.6-31.4,9.5c-5.6,6.7-14,10.6-23,10.6H159c-33.6,1.1-61,29.1-61,63.8
		c0,11.2,2.8,21.8,7.8,30.8l21.8,53.8l-19,54.3h0.6v0.6h-0.6l27.4,77.8h25.2v-10.6l-14-4.5l-2.8-9.5L131,356.2l33.6-43.1l-7.3,31.4
		l30.8,86.2h25.2l0-10.6l-14.6-5L182,344.4l42.6-54.9l35.8,3.9l38.6-11.8l38.1,10.1l-12.3,39.8l3.9,66.6l-10.1,9.5l6.7,20.2
		l15.7-14.6l1.1-75l21.3-22.4l3.9,91.3l9.5,11.8v12.3h26.3v-9l-21.3-23l2.2-77.3l21.8-34.7l17.4-27.4l28.6,3.4l11.8,9h8.4l19.6,29.1
		c2.2,0.6,9.5,3.9,7.3,12.3l-1.7,6.2c-1.7,5.6,1.1,11.8,7.3,14l8.4,2.8c1.7,5.6,7.3,9.5,13.4,8.4l5.6-0.6
		c11.2-2.2,17.9-13.4,15.7-24.1l-6.7-30.2c1.7,2.8,3.9,5.6,6.2,7.8c2.8,3.4,6.7,5.6,10.6,7.8c8.4,4.5,23,7.8,42-3.4
		C602,299.6,602.6,296.2,600.9,292.9C601.4,293.4,600.9,292.9,600.9,292.9L600.9,292.9z"/>
</g>
</svg>
