<?xml version="1.0" encoding="utf-8"?>
<!-- Generator: Adobe Illustrator 27.4.0, SVG Export Plug-In . SVG Version: 6.00 Build 0)  -->
<svg version="1.1" id="Calque_1" xmlns="http://www.w3.org/2000/svg" xmlns:xlink="http://www.w3.org/1999/xlink" x="0px" y="0px"
	 viewBox="0 0 700 700" style="enable-background:new 0 0 700 700;" xml:space="preserve">
<g>
	<path d="M253.2,260c-3,7.5-4.7,15.4-4.7,23.7c0,33.7,27,62.5,65,74c-5.5,31.5-11,63-16.5,94.5c-28.9-22.9-57.7-45.7-86.6-68.5
		c-5-4-13.7-6.1-18.5,0c-9.9,12.5-19.8,25-29.8,37.6c-10.3,13.1,8.1,31.8,18.6,18.6c7.5-9.5,15.1-19,22.6-28.6
		c31.2,24.7,62.4,49.4,93.6,74.1c6.9,5.4,20,5,21.9-5.8c6.8-38.9,13.5-77.9,20.4-116.9c3.6,0.3,7.2,0.5,10.9,0.5
		c3.7,0,7.3-0.2,10.9-0.5c6.8,39,13.5,78,20.4,116.9c1.8,10.8,15.1,11.2,21.9,5.8c31.2-24.7,62.4-49.4,93.6-74.1
		c7.5,9.5,15.1,19,22.6,28.6c10.5,13.2,29-5.5,18.6-18.6c-9.9-12.5-19.8-25-29.8-37.6c-4.7-6-13.5-4-18.5,0
		c-28.9,22.8-57.7,45.6-86.6,68.5c-5.5-31.5-11-63-16.4-94.5c37.9-11.5,64.9-40.2,64.9-74c0-8.3-1.7-16.2-4.7-23.7
		c35.5-56.4,70.9-112.9,106.4-169.3c9-14.3-13.7-27.5-22.7-13.2c-33.2,52.8-66.4,105.6-99.6,158.5c-1.8-1.9-3.7-3.7-5.7-5.4
		c0.4-1,0.7-1.9,1.1-3c2-6.3,3.3-13.6,2.7-20.9c-0.5-7.3-3.2-14.5-6.8-19.8c-3.6-5.5-7.9-9.4-11.7-12.3c-3.8-3-7.2-4.8-9.6-6.2
		c-2.4-1.2-3.8-1.8-3.8-1.8c-5.6-2.8-8.8-3.1-9.2-2.3c-0.5,0.9,1.8,3,6.3,6.9c0,0,1.1,0.9,3,2.6c1.7,1.8,4.4,4.2,6.9,7.5
		c5.4,6.3,9.6,16.3,7.6,25.3c-0.7,4.1-2.5,8.1-4.7,11.8c-16.3-8.7-35.9-13.7-57-13.7c-21.2,0-40.8,5.1-57.1,13.7
		c-2.2-3.6-3.9-7.6-4.7-11.8c-1.9-9,2.2-18.9,7.6-25.3c2.5-3.3,5.2-5.7,7-7.5c1.9-1.6,3-2.6,3-2.6c4.5-3.8,6.8-5.9,6.3-6.9
		c-0.4-0.8-3.7-0.5-9.2,2.3c0,0-1.4,0.7-3.8,1.8c-2.3,1.5-5.8,3.3-9.6,6.2c-3.8,2.9-8.1,6.8-11.7,12.3c-3.6,5.4-6.2,12.5-6.8,19.8
		s0.7,14.6,2.7,20.9c0.4,1.1,0.7,2,1.1,3c-2,1.7-3.9,3.5-5.7,5.4c-33.2-52.8-66.4-105.7-99.6-158.4c-9-14.3-31.7-1.1-22.7,13.2
		C182.3,147.1,217.7,203.6,253.2,260L253.2,260z M350,238.8c16.9,0,30.6,13.7,30.6,30.6S366.9,300,350,300s-30.6-13.7-30.6-30.6
		S333.1,238.8,350,238.8z"/>
	<path d="M350,278.8c5.1,0,9.4-4.2,9.4-9.4c0-5.2-4.2-9.4-9.4-9.4c-5.2,0-9.4,4.2-9.4,9.4C340.6,274.6,344.8,278.8,350,278.8z"/>
</g>
</svg>
