<?xml version="1.0" encoding="utf-8"?>
<!-- Generator: Adobe Illustrator 27.4.0, SVG Export Plug-In . SVG Version: 6.00 Build 0)  -->
<svg version="1.1" id="Calque_1" xmlns="http://www.w3.org/2000/svg" xmlns:xlink="http://www.w3.org/1999/xlink" x="0px" y="0px"
	 viewBox="0 0 700 700" style="enable-background:new 0 0 700 700;" xml:space="preserve">
<g>
	<path d="M547.7,342.7c-4.1-18.6-44.3-28.2-58.6-35.5c-0.5-0.3-3.1-1.6-6.7-3.3c-4.7-2.2-7-2.7-48.8-22.5c-14.7-7-13.2-6.3-45.8-22
		c-53.1-25.5-70.3-33.6-69.4-43.1c0.7-7.6,12.3-8,20-24.5v0c3-6.6,4.7-13.6,4.9-20.8c1.3-19.7-6.6-34.5-9.2-39.3
		c-6.3-11.5-13.6-17.6-26.7-28.5c-10.6-8.8-25-20.6-47-28.3c-7.7-2.7-17.8-6.1-31.4-6.1c-7.3,0-17.8-0.1-29.4,5.5
		c-16.8,8-24.5,22.3-27.6,28.2c-8.1,15-8.6,28.8-9,38h0c-0.5,11.1,0.8,22.1,3.8,32.8c4.8,16.3,19.8,52.1,42.7,55.7
		c3.1,0.5,11.5,1.2,17.9,6.6c1.4,1.1,7,5,6.2,10.2c-0.2,1.2,0.3,3-1.7,13.2c-0.8,3.9-1.4,6.4-1.6,7.7h0c-1.3,6.7-1.9,13.5-1.8,20.3
		c0,8.1,0.6,16.2,1.8,24.2c0.8,6.2,2,14.3,4.1,23.9c-7.3,12.2-13,22.9-17.3,31.2c-1.2,2.4-4.3,8.1-7.8,15.7
		c-3.7,7.9-7.3,15.8-10.7,23.9v0c-2.2,5.1-4.1,10.4-5.7,15.7c-3.2,10.3-4.9,15.9-4.9,23.1c0,6.7,1.7,11.8,5.2,21.8
		c3.9,11,6.7,13.7,7,21.8c0.2,5.7-0.9,10.8,0,11s2.6-3.9,3.4-6.4c1.5-4.7,1.9-9.7,1.2-14.6c-0.1-0.7-0.2-1.2-0.2-1.5
		c-1.3-7.9-3-15.6-2.3-23.9h0c0.7-7.4,2.6-14.7,5.7-21.5c2.4-5.3,7.3-19.8,18.2-38.6c3.3-5.6,7.3-12.1,12.3-19.2
		c-0.2,1.9-0.4,4.7-0.7,8.1c-0.7,8.7-1.1,13.1-1.1,16.4v0c-0.1,6.4,0.7,12.8,2.2,19c1.9,7.3,4.8,14.3,8.7,20.7
		c5.4,9.3,12.1,17.8,19.9,25.3c6.5,6.3,9.4,7.6,12.4,10.7c1.2,1.2,2.3,2.6,3.4,4c2.2,3,7.4,10.1,7.7,19.3c0.1,3.5-0.5,5.8,0.2,6
		c1,0.3,3.4-3.6,4.2-6.7l0,0c0.5-1.8,0.6-3.7,0.5-5.6v-0.5c-0.6-5.7-1-8.6-2.1-12.5h0c-1.3-4.3-3-8.4-5.2-12.3
		c2.1-0.5,3.8-1.1,5.1-1.5c4.6-1.6,9-3.7,13.1-6.3c0.7-0.5,1.3-0.9,1.7-1.1c5,6.4,10.7,12.3,16.8,17.6c4.1,3.8,8.6,7.1,13.3,10.1
		c2.9,1.8,27.1,16.4,38.8,7.4c6-4.6,7.1-14.1,5.6-15c-1.5-0.8-4.4,7.5-11.7,9.9c-11.5,3.8-25.8-9.5-34.1-17.2h0
		c-6.7-6.2-12.6-13.4-17.4-21.2c5.6-13.4,10-27.3,13-41.5c5.2-24.8,7.8-57.8,2.4-79.1c-0.5-2.1-2.8-10.4-5-22
		c-1.4-7.1-2.2-13.1-2.8-17.2c2.2,4.9,5.4,12.3,9.5,21.2c27.4,60,38.2,73.4,44.1,80.2c7.6,8.7,16.1,16.5,25.3,23.4
		c16.2,12.1,34.6,21,54.2,26.1c5.9,1.5,12,2.3,18.1,2.4c9.5,0.1,23.6,0,28.5-8.8c3-5.5,2.7-14.5-2.8-18.8
		c-6.8-5.4-17.9-0.9-17.8,0.5c0,1.4,9.9,0,13.2,5.6c1.6,2.7,1.8,7.3-0.4,10c-7.9,9.4-44.3-7.2-60.4-18.7l-1.9-1.4h0
		c-8.7-6.5-16.6-13.9-23.5-22.2c-16-18.9-23.3-37.1-30.4-55.3c-5.4-13.9-9.8-28.2-12.9-42.8c24.8,13.5,51.2,23.8,78.6,30.9
		c46.5,11.8,89.3,12.1,93.1,29.3c1.7,7.4-4.3,15.7-3.6,16C538.9,366.2,550.2,354,547.7,342.7L547.7,342.7z M253.7,286.5
		c0.9-7.5,3.1-14.7,6.5-21.5c1.5,3.3,2.4,6.9,2.9,10.5c1.3,9.9-1.7,17.9-3.7,23.1c-1.3,3.2-2.8,6.4-4.6,9.4
		C253.2,300.9,252.9,293.7,253.7,286.5L253.7,286.5z M290.7,455c-1.9,1.2-4.1,2-6.3,2.5c-0.9-0.8-2.1-1.9-3.5-3.4h0
		c-8.1-8.1-14.7-17.6-19.5-28c-7.4-17-6.5-32.5-5.8-45.7v0c0.8-13.7,3.7-27.3,8.5-40.2c1.2,11.2,2.8,20.8,4.3,28.2
		c1.5,7.5,3.3,14.2,5.7,23.1c3.1,11.5,7.5,19.5,10.5,25.6c4.5,9.2,9.5,18.2,15.1,26.8C298,448.5,294.8,452.4,290.7,455L290.7,455z
		 M316.2,377.2c-1,14.8-3.2,29.6-6.4,44.1c-0.9,4-1.7,7.3-2.2,9.4h0c-1.9-2.5-3.5-5.2-5-8c-5.2-9.7-7.7-20.4-9.1-53.2
		c-0.4-8.4-0.6-12.6-0.6-18.8h0c0-19.4,1.2-38.7,3.5-57.9c4.2,8.8,8,17.9,11.1,27.2c3.4,10.1,5.2,17.1,5.7,19.2
		c1.5,5.7,2.6,11.5,3.2,17.4C317.1,363.7,316.8,368.8,316.2,377.2L316.2,377.2z M309.7,194.4c-14.7,9.7-39.1-1.5-54.4-24.8
		c-15.3-23.4-15.8-50.1-1.1-59.8c14.7-9.7,39.1,1.5,54.4,24.9C323.8,158,324.4,184.8,309.7,194.4L309.7,194.4z"/>
	<path d="M303.5,139.4c9,13.7,9.2,29.3,0.6,35c-8.6,5.6-22.8-0.9-31.8-14.5c-9-13.7-9.2-29.3-0.6-35
		C280.3,119.3,294.6,125.8,303.5,139.4"/>
</g>
</svg>
