<?xml version="1.0" encoding="utf-8"?>
<!-- Generator: Adobe Illustrator 27.4.0, SVG Export Plug-In . SVG Version: 6.00 Build 0)  -->
<svg version="1.1" id="Calque_1" xmlns="http://www.w3.org/2000/svg" xmlns:xlink="http://www.w3.org/1999/xlink" x="0px" y="0px"
	 viewBox="0 0 700 700" style="enable-background:new 0 0 700 700;" xml:space="preserve">
<g>
	<path d="M602,276.1v1.1v1.1c-0.6,9.5-8.4,17.4-18.5,17.4h-5.6l-31.4,20.2c-30.2,17.9-63.3,30.2-97.4,36.4l-20.7,26.9l-52.6,23
		c-0.6,0.6-1.1,0.6-2.2,0.6H373c-3.9-0.6-5.6-5-3.4-7.8l30.2-38.6l-127.7,0l-69.4-33.6c-29.1-14-48.7-40.9-53.8-71.7l2.2,1.7
		l-14-18.5l-38.1-18.5c-1.7-1.1-1.1-2.8,0-2.8h31.4c3.9,0,7.3-3.4,6.7-7.3c-2.2-16.8,12.3-17.9,10.6-30.8l-1.7-15.1
		c0-1.7,1.1-2.8,2.8-1.7c14.6,7.3,15.1,39.2,15.1,39.2l3.9,32.5l13.4,15.7c10.6,11.2,25.2,17.9,41.4,17.9h61.6
		c8.4,0,16.2-5,19.6-12.9l0.6-1.7c1.1-2.8,3.9-4.5,7.3-3.4l30.8,7.8h236.3c12.3,0,22.4,10.1,22.4,22.4L602,276.1z"/>
</g>
</svg>
